<mxfile host="app.diagrams.net" modified="2024-02-06T13:04:55.819Z" agent="Mozilla/5.0 (Windows NT 10.0; Win64; x64) AppleWebKit/537.36 (KHTML, like Gecko) Chrome/120.0.0.0 Safari/537.36 OPR/106.0.0.0" etag="qqDtZb9ynvOSp4o77E4-" version="23.1.1" type="github">
  <diagram name="Page-1" id="gNU2bn5AUMJG5s5ARS2E">
    <mxGraphModel dx="1009" dy="573" grid="1" gridSize="10" guides="1" tooltips="1" connect="1" arrows="1" fold="1" page="1" pageScale="1" pageWidth="850" pageHeight="1100" math="0" shadow="0">
      <root>
        <mxCell id="0" />
        <mxCell id="1" parent="0" />
        <mxCell id="srBLIvh-u1Wb3fB2wXmO-1" value="" style="ellipse;whiteSpace=wrap;html=1;aspect=fixed;" vertex="1" parent="1">
          <mxGeometry x="240" y="200" width="80" height="80" as="geometry" />
        </mxCell>
        <mxCell id="srBLIvh-u1Wb3fB2wXmO-2" value="" style="ellipse;whiteSpace=wrap;html=1;aspect=fixed;" vertex="1" parent="1">
          <mxGeometry x="440" y="200" width="80" height="80" as="geometry" />
        </mxCell>
        <mxCell id="srBLIvh-u1Wb3fB2wXmO-3" value="" style="endArrow=classic;html=1;rounded=0;entryX=0;entryY=0.5;entryDx=0;entryDy=0;" edge="1" parent="1" target="srBLIvh-u1Wb3fB2wXmO-1">
          <mxGeometry width="50" height="50" relative="1" as="geometry">
            <mxPoint x="160" y="240" as="sourcePoint" />
            <mxPoint x="190" y="260" as="targetPoint" />
          </mxGeometry>
        </mxCell>
        <mxCell id="srBLIvh-u1Wb3fB2wXmO-4" value="" style="endArrow=classic;html=1;rounded=0;entryX=0;entryY=0.5;entryDx=0;entryDy=0;exitX=1;exitY=0.5;exitDx=0;exitDy=0;" edge="1" parent="1" source="srBLIvh-u1Wb3fB2wXmO-1" target="srBLIvh-u1Wb3fB2wXmO-2">
          <mxGeometry width="50" height="50" relative="1" as="geometry">
            <mxPoint x="350" y="279" as="sourcePoint" />
            <mxPoint x="430" y="279" as="targetPoint" />
          </mxGeometry>
        </mxCell>
        <mxCell id="srBLIvh-u1Wb3fB2wXmO-5" value="&lt;b&gt;S2&lt;/b&gt;" style="text;html=1;strokeColor=none;fillColor=none;align=center;verticalAlign=middle;whiteSpace=wrap;rounded=0;" vertex="1" parent="1">
          <mxGeometry x="250" y="225" width="60" height="30" as="geometry" />
        </mxCell>
        <mxCell id="srBLIvh-u1Wb3fB2wXmO-7" value="&lt;b style=&quot;font-size: 20px;&quot;&gt;+&lt;/b&gt;" style="text;html=1;strokeColor=none;fillColor=none;align=center;verticalAlign=middle;whiteSpace=wrap;rounded=0;fontSize=20;" vertex="1" parent="1">
          <mxGeometry x="350" y="209" width="60" height="30" as="geometry" />
        </mxCell>
        <mxCell id="srBLIvh-u1Wb3fB2wXmO-8" value="" style="ellipse;whiteSpace=wrap;html=1;aspect=fixed;" vertex="1" parent="1">
          <mxGeometry x="240" y="320" width="80" height="80" as="geometry" />
        </mxCell>
        <mxCell id="srBLIvh-u1Wb3fB2wXmO-9" value="" style="ellipse;whiteSpace=wrap;html=1;aspect=fixed;" vertex="1" parent="1">
          <mxGeometry x="440" y="320" width="80" height="80" as="geometry" />
        </mxCell>
        <mxCell id="srBLIvh-u1Wb3fB2wXmO-10" value="" style="endArrow=classic;html=1;rounded=0;entryX=0;entryY=0.5;entryDx=0;entryDy=0;" edge="1" parent="1" target="srBLIvh-u1Wb3fB2wXmO-8">
          <mxGeometry width="50" height="50" relative="1" as="geometry">
            <mxPoint x="160" y="360" as="sourcePoint" />
            <mxPoint x="190" y="380" as="targetPoint" />
          </mxGeometry>
        </mxCell>
        <mxCell id="srBLIvh-u1Wb3fB2wXmO-11" value="" style="endArrow=classic;html=1;rounded=0;entryX=0;entryY=0.5;entryDx=0;entryDy=0;exitX=1;exitY=0.5;exitDx=0;exitDy=0;" edge="1" parent="1" source="srBLIvh-u1Wb3fB2wXmO-8" target="srBLIvh-u1Wb3fB2wXmO-9">
          <mxGeometry width="50" height="50" relative="1" as="geometry">
            <mxPoint x="350" y="399" as="sourcePoint" />
            <mxPoint x="430" y="399" as="targetPoint" />
          </mxGeometry>
        </mxCell>
        <mxCell id="srBLIvh-u1Wb3fB2wXmO-12" value="&lt;b&gt;S4&lt;/b&gt;" style="text;html=1;strokeColor=none;fillColor=none;align=center;verticalAlign=middle;whiteSpace=wrap;rounded=0;" vertex="1" parent="1">
          <mxGeometry x="250" y="345" width="60" height="30" as="geometry" />
        </mxCell>
        <mxCell id="srBLIvh-u1Wb3fB2wXmO-14" value="&lt;b style=&quot;font-size: 20px;&quot;&gt;-&lt;/b&gt;" style="text;html=1;strokeColor=none;fillColor=none;align=center;verticalAlign=middle;whiteSpace=wrap;rounded=0;fontSize=20;" vertex="1" parent="1">
          <mxGeometry x="350" y="329" width="60" height="30" as="geometry" />
        </mxCell>
        <mxCell id="srBLIvh-u1Wb3fB2wXmO-15" value="" style="ellipse;whiteSpace=wrap;html=1;aspect=fixed;" vertex="1" parent="1">
          <mxGeometry x="240" y="442" width="80" height="80" as="geometry" />
        </mxCell>
        <mxCell id="srBLIvh-u1Wb3fB2wXmO-16" value="" style="ellipse;whiteSpace=wrap;html=1;aspect=fixed;" vertex="1" parent="1">
          <mxGeometry x="440" y="442" width="80" height="80" as="geometry" />
        </mxCell>
        <mxCell id="srBLIvh-u1Wb3fB2wXmO-17" value="" style="endArrow=classic;html=1;rounded=0;entryX=0;entryY=0.5;entryDx=0;entryDy=0;" edge="1" parent="1" target="srBLIvh-u1Wb3fB2wXmO-15">
          <mxGeometry width="50" height="50" relative="1" as="geometry">
            <mxPoint x="160" y="482" as="sourcePoint" />
            <mxPoint x="190" y="502" as="targetPoint" />
          </mxGeometry>
        </mxCell>
        <mxCell id="srBLIvh-u1Wb3fB2wXmO-18" value="" style="endArrow=classic;html=1;rounded=0;entryX=0;entryY=0.5;entryDx=0;entryDy=0;exitX=1;exitY=0.5;exitDx=0;exitDy=0;" edge="1" parent="1" source="srBLIvh-u1Wb3fB2wXmO-15" target="srBLIvh-u1Wb3fB2wXmO-16">
          <mxGeometry width="50" height="50" relative="1" as="geometry">
            <mxPoint x="350" y="521" as="sourcePoint" />
            <mxPoint x="430" y="521" as="targetPoint" />
          </mxGeometry>
        </mxCell>
        <mxCell id="srBLIvh-u1Wb3fB2wXmO-19" value="&lt;b&gt;S6&lt;/b&gt;" style="text;html=1;strokeColor=none;fillColor=none;align=center;verticalAlign=middle;whiteSpace=wrap;rounded=0;" vertex="1" parent="1">
          <mxGeometry x="250" y="467" width="60" height="30" as="geometry" />
        </mxCell>
        <mxCell id="srBLIvh-u1Wb3fB2wXmO-21" value="&lt;b style=&quot;font-size: 20px;&quot;&gt;*&lt;/b&gt;" style="text;html=1;strokeColor=none;fillColor=none;align=center;verticalAlign=middle;whiteSpace=wrap;rounded=0;fontSize=20;" vertex="1" parent="1">
          <mxGeometry x="350" y="451" width="60" height="30" as="geometry" />
        </mxCell>
        <mxCell id="srBLIvh-u1Wb3fB2wXmO-22" value="" style="ellipse;whiteSpace=wrap;html=1;aspect=fixed;" vertex="1" parent="1">
          <mxGeometry x="240" y="560" width="80" height="80" as="geometry" />
        </mxCell>
        <mxCell id="srBLIvh-u1Wb3fB2wXmO-23" value="" style="ellipse;whiteSpace=wrap;html=1;aspect=fixed;" vertex="1" parent="1">
          <mxGeometry x="440" y="560" width="80" height="80" as="geometry" />
        </mxCell>
        <mxCell id="srBLIvh-u1Wb3fB2wXmO-24" value="" style="endArrow=classic;html=1;rounded=0;entryX=0;entryY=0.5;entryDx=0;entryDy=0;" edge="1" parent="1" target="srBLIvh-u1Wb3fB2wXmO-22">
          <mxGeometry width="50" height="50" relative="1" as="geometry">
            <mxPoint x="160" y="600" as="sourcePoint" />
            <mxPoint x="190" y="620" as="targetPoint" />
          </mxGeometry>
        </mxCell>
        <mxCell id="srBLIvh-u1Wb3fB2wXmO-25" value="" style="endArrow=classic;html=1;rounded=0;entryX=0;entryY=0.5;entryDx=0;entryDy=0;exitX=1;exitY=0.5;exitDx=0;exitDy=0;" edge="1" parent="1" source="srBLIvh-u1Wb3fB2wXmO-22" target="srBLIvh-u1Wb3fB2wXmO-23">
          <mxGeometry width="50" height="50" relative="1" as="geometry">
            <mxPoint x="350" y="639" as="sourcePoint" />
            <mxPoint x="430" y="639" as="targetPoint" />
          </mxGeometry>
        </mxCell>
        <mxCell id="srBLIvh-u1Wb3fB2wXmO-26" value="&lt;b&gt;S8&lt;/b&gt;" style="text;html=1;strokeColor=none;fillColor=none;align=center;verticalAlign=middle;whiteSpace=wrap;rounded=0;" vertex="1" parent="1">
          <mxGeometry x="250" y="585" width="60" height="30" as="geometry" />
        </mxCell>
        <mxCell id="srBLIvh-u1Wb3fB2wXmO-28" value="&lt;b style=&quot;font-size: 20px;&quot;&gt;/&lt;/b&gt;" style="text;html=1;strokeColor=none;fillColor=none;align=center;verticalAlign=middle;whiteSpace=wrap;rounded=0;fontSize=20;" vertex="1" parent="1">
          <mxGeometry x="350" y="567" width="60" height="30" as="geometry" />
        </mxCell>
        <mxCell id="srBLIvh-u1Wb3fB2wXmO-29" value="" style="ellipse;whiteSpace=wrap;html=1;aspect=fixed;" vertex="1" parent="1">
          <mxGeometry x="240" y="680" width="80" height="80" as="geometry" />
        </mxCell>
        <mxCell id="srBLIvh-u1Wb3fB2wXmO-30" value="" style="ellipse;whiteSpace=wrap;html=1;aspect=fixed;" vertex="1" parent="1">
          <mxGeometry x="440" y="680" width="80" height="80" as="geometry" />
        </mxCell>
        <mxCell id="srBLIvh-u1Wb3fB2wXmO-31" value="" style="endArrow=classic;html=1;rounded=0;entryX=0;entryY=0.5;entryDx=0;entryDy=0;" edge="1" parent="1" target="srBLIvh-u1Wb3fB2wXmO-29">
          <mxGeometry width="50" height="50" relative="1" as="geometry">
            <mxPoint x="160" y="720" as="sourcePoint" />
            <mxPoint x="190" y="740" as="targetPoint" />
          </mxGeometry>
        </mxCell>
        <mxCell id="srBLIvh-u1Wb3fB2wXmO-32" value="" style="endArrow=classic;html=1;rounded=0;entryX=0;entryY=0.5;entryDx=0;entryDy=0;exitX=1;exitY=0.5;exitDx=0;exitDy=0;" edge="1" parent="1" source="srBLIvh-u1Wb3fB2wXmO-29" target="srBLIvh-u1Wb3fB2wXmO-30">
          <mxGeometry width="50" height="50" relative="1" as="geometry">
            <mxPoint x="350" y="759" as="sourcePoint" />
            <mxPoint x="430" y="759" as="targetPoint" />
          </mxGeometry>
        </mxCell>
        <mxCell id="srBLIvh-u1Wb3fB2wXmO-36" value="" style="ellipse;whiteSpace=wrap;html=1;aspect=fixed;" vertex="1" parent="1">
          <mxGeometry x="450" y="209" width="61" height="61" as="geometry" />
        </mxCell>
        <mxCell id="srBLIvh-u1Wb3fB2wXmO-33" value="&lt;b&gt;S11&lt;/b&gt;" style="text;html=1;strokeColor=none;fillColor=none;align=center;verticalAlign=middle;whiteSpace=wrap;rounded=0;" vertex="1" parent="1">
          <mxGeometry x="250" y="705" width="60" height="30" as="geometry" />
        </mxCell>
        <mxCell id="srBLIvh-u1Wb3fB2wXmO-37" value="" style="ellipse;whiteSpace=wrap;html=1;aspect=fixed;" vertex="1" parent="1">
          <mxGeometry x="450" y="329" width="61" height="61" as="geometry" />
        </mxCell>
        <mxCell id="srBLIvh-u1Wb3fB2wXmO-35" value="&lt;b style=&quot;font-size: 20px;&quot;&gt;%&lt;/b&gt;" style="text;html=1;strokeColor=none;fillColor=none;align=center;verticalAlign=middle;whiteSpace=wrap;rounded=0;fontSize=20;" vertex="1" parent="1">
          <mxGeometry x="350" y="687" width="60" height="30" as="geometry" />
        </mxCell>
        <mxCell id="srBLIvh-u1Wb3fB2wXmO-6" value="&lt;b&gt;S3&lt;/b&gt;" style="text;html=1;strokeColor=none;fillColor=none;align=center;verticalAlign=middle;whiteSpace=wrap;rounded=0;" vertex="1" parent="1">
          <mxGeometry x="450" y="224.5" width="60" height="30" as="geometry" />
        </mxCell>
        <mxCell id="srBLIvh-u1Wb3fB2wXmO-38" value="" style="ellipse;whiteSpace=wrap;html=1;aspect=fixed;" vertex="1" parent="1">
          <mxGeometry x="450" y="451.5" width="61" height="61" as="geometry" />
        </mxCell>
        <mxCell id="srBLIvh-u1Wb3fB2wXmO-39" value="" style="ellipse;whiteSpace=wrap;html=1;aspect=fixed;" vertex="1" parent="1">
          <mxGeometry x="450" y="569.5" width="61" height="61" as="geometry" />
        </mxCell>
        <mxCell id="srBLIvh-u1Wb3fB2wXmO-13" value="&lt;b&gt;S5&lt;/b&gt;" style="text;html=1;strokeColor=none;fillColor=none;align=center;verticalAlign=middle;whiteSpace=wrap;rounded=0;" vertex="1" parent="1">
          <mxGeometry x="450" y="345" width="60" height="30" as="geometry" />
        </mxCell>
        <mxCell id="srBLIvh-u1Wb3fB2wXmO-20" value="&lt;b&gt;S7&lt;/b&gt;" style="text;html=1;strokeColor=none;fillColor=none;align=center;verticalAlign=middle;whiteSpace=wrap;rounded=0;" vertex="1" parent="1">
          <mxGeometry x="450" y="467" width="60" height="30" as="geometry" />
        </mxCell>
        <mxCell id="srBLIvh-u1Wb3fB2wXmO-27" value="&lt;b&gt;S9&lt;/b&gt;" style="text;html=1;strokeColor=none;fillColor=none;align=center;verticalAlign=middle;whiteSpace=wrap;rounded=0;" vertex="1" parent="1">
          <mxGeometry x="450" y="585" width="60" height="30" as="geometry" />
        </mxCell>
        <mxCell id="srBLIvh-u1Wb3fB2wXmO-40" value="" style="ellipse;whiteSpace=wrap;html=1;aspect=fixed;" vertex="1" parent="1">
          <mxGeometry x="450" y="689.5" width="61" height="61" as="geometry" />
        </mxCell>
        <mxCell id="srBLIvh-u1Wb3fB2wXmO-34" value="&lt;b&gt;S12&lt;/b&gt;" style="text;html=1;strokeColor=none;fillColor=none;align=center;verticalAlign=middle;whiteSpace=wrap;rounded=0;" vertex="1" parent="1">
          <mxGeometry x="450" y="705" width="60" height="30" as="geometry" />
        </mxCell>
        <mxCell id="srBLIvh-u1Wb3fB2wXmO-45" value="" style="ellipse;whiteSpace=wrap;html=1;aspect=fixed;" vertex="1" parent="1">
          <mxGeometry x="640" y="560" width="80" height="80" as="geometry" />
        </mxCell>
        <mxCell id="srBLIvh-u1Wb3fB2wXmO-46" value="" style="endArrow=classic;html=1;rounded=0;entryX=0;entryY=0.5;entryDx=0;entryDy=0;exitX=1;exitY=0.5;exitDx=0;exitDy=0;" edge="1" parent="1" target="srBLIvh-u1Wb3fB2wXmO-45">
          <mxGeometry width="50" height="50" relative="1" as="geometry">
            <mxPoint x="520" y="600" as="sourcePoint" />
            <mxPoint x="630" y="639" as="targetPoint" />
          </mxGeometry>
        </mxCell>
        <mxCell id="srBLIvh-u1Wb3fB2wXmO-47" value="&lt;b style=&quot;font-size: 20px;&quot;&gt;/&lt;/b&gt;" style="text;html=1;strokeColor=none;fillColor=none;align=center;verticalAlign=middle;whiteSpace=wrap;rounded=0;fontSize=20;" vertex="1" parent="1">
          <mxGeometry x="550" y="567" width="60" height="30" as="geometry" />
        </mxCell>
        <mxCell id="srBLIvh-u1Wb3fB2wXmO-48" value="" style="ellipse;whiteSpace=wrap;html=1;aspect=fixed;" vertex="1" parent="1">
          <mxGeometry x="650" y="569.5" width="61" height="61" as="geometry" />
        </mxCell>
        <mxCell id="srBLIvh-u1Wb3fB2wXmO-49" value="&lt;b&gt;S10&lt;/b&gt;" style="text;html=1;strokeColor=none;fillColor=none;align=center;verticalAlign=middle;whiteSpace=wrap;rounded=0;" vertex="1" parent="1">
          <mxGeometry x="650" y="585" width="60" height="30" as="geometry" />
        </mxCell>
        <mxCell id="srBLIvh-u1Wb3fB2wXmO-50" value="" style="ellipse;whiteSpace=wrap;html=1;aspect=fixed;" vertex="1" parent="1">
          <mxGeometry x="240" y="800" width="80" height="80" as="geometry" />
        </mxCell>
        <mxCell id="srBLIvh-u1Wb3fB2wXmO-51" value="" style="ellipse;whiteSpace=wrap;html=1;aspect=fixed;" vertex="1" parent="1">
          <mxGeometry x="440" y="800" width="80" height="80" as="geometry" />
        </mxCell>
        <mxCell id="srBLIvh-u1Wb3fB2wXmO-52" value="" style="endArrow=classic;html=1;rounded=0;entryX=0;entryY=0.5;entryDx=0;entryDy=0;" edge="1" parent="1" target="srBLIvh-u1Wb3fB2wXmO-50">
          <mxGeometry width="50" height="50" relative="1" as="geometry">
            <mxPoint x="160" y="840" as="sourcePoint" />
            <mxPoint x="190" y="860" as="targetPoint" />
          </mxGeometry>
        </mxCell>
        <mxCell id="srBLIvh-u1Wb3fB2wXmO-53" value="" style="endArrow=classic;html=1;rounded=0;entryX=0;entryY=0.5;entryDx=0;entryDy=0;exitX=1;exitY=0.5;exitDx=0;exitDy=0;" edge="1" parent="1" source="srBLIvh-u1Wb3fB2wXmO-50" target="srBLIvh-u1Wb3fB2wXmO-51">
          <mxGeometry width="50" height="50" relative="1" as="geometry">
            <mxPoint x="350" y="879" as="sourcePoint" />
            <mxPoint x="430" y="879" as="targetPoint" />
          </mxGeometry>
        </mxCell>
        <mxCell id="srBLIvh-u1Wb3fB2wXmO-54" value="&lt;b&gt;S13&lt;/b&gt;" style="text;html=1;strokeColor=none;fillColor=none;align=center;verticalAlign=middle;whiteSpace=wrap;rounded=0;" vertex="1" parent="1">
          <mxGeometry x="250" y="825" width="60" height="30" as="geometry" />
        </mxCell>
        <mxCell id="srBLIvh-u1Wb3fB2wXmO-55" value="&lt;b style=&quot;font-size: 20px;&quot;&gt;^&lt;/b&gt;" style="text;html=1;strokeColor=none;fillColor=none;align=center;verticalAlign=middle;whiteSpace=wrap;rounded=0;fontSize=20;" vertex="1" parent="1">
          <mxGeometry x="350" y="810" width="60" height="30" as="geometry" />
        </mxCell>
        <mxCell id="srBLIvh-u1Wb3fB2wXmO-56" value="" style="ellipse;whiteSpace=wrap;html=1;aspect=fixed;" vertex="1" parent="1">
          <mxGeometry x="450" y="809.5" width="61" height="61" as="geometry" />
        </mxCell>
        <mxCell id="srBLIvh-u1Wb3fB2wXmO-57" value="&lt;b&gt;S14&lt;/b&gt;" style="text;html=1;strokeColor=none;fillColor=none;align=center;verticalAlign=middle;whiteSpace=wrap;rounded=0;" vertex="1" parent="1">
          <mxGeometry x="450" y="825" width="60" height="30" as="geometry" />
        </mxCell>
      </root>
    </mxGraphModel>
  </diagram>
</mxfile>
